<?xml version="1.0" encoding="UTF-8" standalone="no"?>
<!-- Created with Inkscape (http://www.inkscape.org/) -->
<svg xmlns:a="http://ns.adobe.com/AdobeSVGViewerExtensions/3.0/" xmlns:dc="http://purl.org/dc/elements/1.1/" xmlns:cc="http://creativecommons.org/ns#" xmlns:rdf="http://www.w3.org/1999/02/22-rdf-syntax-ns#" xmlns:svg="http://www.w3.org/2000/svg" xmlns="http://www.w3.org/2000/svg" xmlns:xlink="http://www.w3.org/1999/xlink" xmlns:sodipodi="http://sodipodi.sourceforge.net/DTD/sodipodi-0.dtd" xmlns:inkscape="http://www.inkscape.org/namespaces/inkscape" version="1.0" width="48pt" height="48pt" viewBox="0 0 256 256" id="svg2" xml:space="preserve" sodipodi:version="0.32" inkscape:version="0.48.2 r9819" sodipodi:docname="SCT1.svg" inkscape:output_extension="org.inkscape.output.svg.inkscape"><metadata id="metadata45"><rdf:RDF><cc:Work rdf:about=""><dc:format>image/svg+xml</dc:format><dc:type rdf:resource="http://purl.org/dc/dcmitype/StillImage"/><dc:title/></cc:Work></rdf:RDF></metadata><sodipodi:namedview inkscape:window-height="705" inkscape:window-width="1366" inkscape:pageshadow="2" inkscape:pageopacity="0.0" guidetolerance="10.0" gridtolerance="10.0" objecttolerance="10.0" borderopacity="1.0" bordercolor="#666666" pagecolor="#ffffff" id="base" inkscape:zoom="3.9447919" inkscape:cx="53.191602" inkscape:cy="9.3881455" inkscape:window-x="-4" inkscape:window-y="-4" inkscape:current-layer="svg2" showgrid="false" inkscape:window-maximized="1"/><defs id="defs271"><linearGradient x1="87.396973" y1="141.97266" x2="240.94727" y2="141.97266" id="XMLID_22_" gradientUnits="userSpaceOnUse" gradientTransform="matrix(1.567692,0,0,1.567692,-129.3706,-94.56783)">
								<stop style="stop-color:#ffffff;stop-opacity:0.66666675" offset="0" id="stop139"/>
								
								<stop style="stop-color:#d7d7d7;stop-opacity:0.21875" offset="0.24074516" id="stop143"/>
								<stop style="stop-color:#4d4d4d;stop-opacity:0" offset="0.4585622" id="stop145"/><stop style="stop-color:#ffffff;stop-opacity:0.51041669" offset="0.71891773" id="stop3696"/><stop style="stop-color:#f2f2f2;stop-opacity:0.40000001" offset="0.87351298" id="stop2807"/><stop style="stop-color:#ffffff;stop-opacity:0.62352943" offset="1" id="stop3694"/>
								
								
								<a:midPointStop style="stop-color:#E9E9EF" offset="0"/>
								<a:midPointStop style="stop-color:#E9E9EF" offset="0.5"/>
								<a:midPointStop style="stop-color:#B1B1C5" offset="0.157303"/>
								<a:midPointStop style="stop-color:#B1B1C5" offset="0.5"/>
								<a:midPointStop style="stop-color:#CECEDB" offset="0.314607"/>
								<a:midPointStop style="stop-color:#CECEDB" offset="0.5"/>
								<a:midPointStop style="stop-color:#FFFFFF" offset="0.65"/>
								<a:midPointStop style="stop-color:#FFFFFF" offset="0.5"/>
								<a:midPointStop style="stop-color:#CECEDB" offset="0.837079"/>
								<a:midPointStop style="stop-color:#CECEDB" offset="0.5"/>
								<a:midPointStop style="stop-color:#FFFF66" offset="1"/>
							</linearGradient><linearGradient y2="123.21392" x2="132.62358" y1="151.1393" x1="133.17909" gradientUnits="userSpaceOnUse" id="linearGradient2192" xlink:href="#XMLID_17_" inkscape:collect="always"/><linearGradient x1="126.18921" y1="39.617504" x2="126.18921" y2="112.30453" id="XMLID_17_" gradientUnits="userSpaceOnUse" gradientTransform="matrix(1.567692,0,0,1.567692,-69.82581,15.22741)">
								<stop style="stop-color:#c200be;stop-opacity:1;" offset="0" id="stop18"/>
								<stop style="stop-color:#c200be;stop-opacity:1;" offset="0.19460699" id="stop20"/>
								<stop style="stop-color:#1000ae;stop-opacity:1;" offset="0.31460699" id="stop22"/>
								<stop style="stop-color:#1000ae;stop-opacity:1;" offset="0.72999996" id="stop24"/>
								<stop style="stop-color:#00dab6;stop-opacity:1;" offset="0.85707897" id="stop26"/>
								<stop style="stop-color:#00dab6;stop-opacity:1;" offset="1" id="stop28"/>
								<a:midPointStop style="stop-color:#CF0000" offset="0"/>
								<a:midPointStop style="stop-color:#CF0000" offset="0.5"/>
								<a:midPointStop style="stop-color:#7C0000" offset="0.157303"/>
								<a:midPointStop style="stop-color:#7C0000" offset="0.5"/>
								<a:midPointStop style="stop-color:#CF0000" offset="0.314607"/>
								<a:midPointStop style="stop-color:#CF0000" offset="0.5"/>
								<a:midPointStop style="stop-color:#B80000" offset="0.65"/>
								<a:midPointStop style="stop-color:#B80000" offset="0.5"/>
								<a:midPointStop style="stop-color:#CF0000" offset="0.837079"/>
								<a:midPointStop style="stop-color:#CF0000" offset="0.5"/>
								<a:midPointStop style="stop-color:#FF0000" offset="1"/>
							</linearGradient><linearGradient inkscape:collect="always" xlink:href="#XMLID_17_" id="linearGradient2470" gradientUnits="userSpaceOnUse" x1="133.17909" y1="151.1393" x2="132.62358" y2="123.21392"/><linearGradient inkscape:collect="always" xlink:href="#XMLID_17_" id="linearGradient2487" gradientUnits="userSpaceOnUse" x1="133.17909" y1="151.1393" x2="132.62358" y2="123.21392" gradientTransform="translate(-310.63041,4.2745159)"/><linearGradient inkscape:collect="always" xlink:href="#XMLID_22_" id="linearGradient10272" gradientUnits="userSpaceOnUse" gradientTransform="matrix(1.567692,0,0,1.567692,-129.3714,-94.56962)" x1="87.396973" y1="141.97266" x2="269.33331" y2="141.97276"/><linearGradient inkscape:collect="always" xlink:href="#XMLID_22_" id="linearGradient3022" gradientUnits="userSpaceOnUse" gradientTransform="matrix(1.567692,0,0,1.567692,-129.3714,-94.56962)" x1="87.396973" y1="141.97266" x2="269.33331" y2="141.97276"/></defs>
	
		
	



<path inkscape:connector-curvature="0" id="path15" style="fill:#4d4d4d" d="M 248.36055,32.472022 C 167.27229,-10.429768 86.183274,85.849332 5.0950169,40.005058 2.2811336,38.417463 1.7853684e-5,39.212792 1.7853684e-5,42.029738 c 0,57.313381 0,114.627522 0,171.940902 0,2.81082 2.281115746316,6.57849 5.094999046316,8.16455 81.9363991,46.325 163.8735731,-52.46409 245.8099731,-6.13986 2.81388,1.58682 5.095,0.79226 5.095,-2.02469 0,-57.31338 0,-114.627521 0,-171.940902 0,-2.810823 -2.28112,-6.577723 -5.095,-8.165317 -0.84814,-0.479187 -1.69629,-0.943066 -2.54444,-1.392399 z"/><path inkscape:connector-curvature="0" id="path30" style="fill:#0065bf;fill-opacity:0.94117647" d="m 248.36055,37.567021 c 0,1.853979 -14.89154,-10.205307 -37.30922,-11.054219 -22.41617,-2.351538 -52.35541,6.505769 -82.45234,15.426609 C 98.502062,50.838819 68.2505,59.830085 45.210481,57.499214 22.170459,56.646475 6.3427413,44.472367 5.0950169,45.100057 c 0,4.876072 0,167.063303 0,171.940903 1.234711,-0.80222 16.9070381,11.48136 39.7977911,12.39534 22.889987,2.39899 52.99917,-6.56931 83.107572,-15.50775 30.10919,-8.92926 60.21836,-17.85624 83.10759,-15.43733 22.89075,0.93235 38.56307,13.21056 39.79702,12.40911 0,-4.87761 0,-167.064838 0,-171.94091 -1.27375,-0.722609 -2.54444,-1.392399 -2.54444,-1.392399 z"/><polyline style="fill:none" points="0,256 0,0 256,0 256,256 " id="polyline3117"/><path style="fill:#ffffff" d="M 51.46875 7.09375 C 44.309653 10.720742 37.156491 17.853411 30 25 C 23.160495 22.334342 16.310961 19.672914 9.46875 13.9375 C 6.9074464 13.605984 4.3425474 12.855064 1.78125 11.5 L 1.78125 16.03125 C 8.7823526 24.705593 15.780107 28.945749 22.78125 32.0625 C 15.782995 38.662367 8.7794645 44.141942 1.78125 45.1875 L 1.78125 50.59375 C 4.0273746 51.782092 6.2851206 52.520336 8.53125 52.90625 C 15.690332 49.279256 22.843509 42.146599 30 35 C 36.839505 37.665796 43.689031 40.327116 50.53125 46.0625 C 53.092572 46.394028 55.657428 47.144912 58.21875 48.5 L 58.21875 43.96875 C 51.21758 35.294292 44.21991 31.054147 37.21875 27.9375 C 44.217022 21.33763 51.220468 15.858036 58.21875 14.8125 L 58.21875 9.40625 C 55.972604 8.2178866 53.714896 7.4796845 51.46875 7.09375 z " id="path3020" transform="scale(4.2666667,4.2666667)"/><g style="display:inline" id="layer1"><path inkscape:connector-curvature="0" d="m 248.35974,206.96001 c -80.24012,-42.45169 -160.480231,51.37712 -240.7195788,8.92543 0,-55.61478 0,-111.23035 0,-166.845894 C 87.879509,91.490468 168.11962,-2.3375794 248.35974,40.114878 c 0,55.614786 0,111.230352 0,166.845132 z" style="fill:url(#linearGradient10272)" id="path3186"/></g></svg>